# xmcd
#
# Track frame offsets:
#	150
#	10790
#	24016
#	35749
#	48010
#	61406
#	73084
#	85210
#	97795
#	109168
#	121725
#	140765
#	153884
#	167103
#	186990
#	204276
#	215402
#	272570
#	288823
#	302227
#
# Disc length: 4178 seconds
#
# Revision: 2
# Processed by: cddbd v1.5.1PL0 Copyright (c) Steve Scherf et al.
# Submitted via: audiograbber 1.83.01
#
DISCID=0b105014
DTITLE=Various Artist - Soul In Blue
DYEAR=2001
DGENRE=Soul
TTITLE0=Drifters - Up On The Roof
TTITLE1=Percy Sledge - When A Man Loves A Woman
TTITLE2=Maxine Brown - Oh No Not My Baby
TTITLE3=Ike And Tina Turner - So Fine
TTITLE4=Ben E King - Stand By Me
TTITLE5=Sam and Dave - Soothe Me
TTITLE6=Danny Williams - Moon River
TTITLE7=Mary Wells - Two Lovers
TTITLE8=Tommy Edwards - It's All In The Game
TTITLE9=Maurice Williams and The Zodiacs - High Heeled Sneakers
TTITLE10=Kim Weston - It's Too Late
TTITLE11=Supremes - Stoned Love
TTITLE12=Lloyd Price - Just Because
TTITLE13=Eddie Floyd - Mr Blue
TTITLE14=Brook Benton - Rainy Night In Georgia
TTITLE15=Rufus Thomas - Walkin' The Dog
TTITLE16=James Brown - It's A Man's Man's Man's World
TTITLE17=Marvin Gaye - Ain't Nothing LikeThe Real Thing
TTITLE18=Junior Walker - How Sweet It Is (To Be Loved By You)
TTITLE19=Sly And The Family Stone - Searchin'
EXTD=
EXTT0=
EXTT1=
EXTT2=
EXTT3=
EXTT4=
EXTT5=
EXTT6=
EXTT7=
EXTT8=
EXTT9=
EXTT10=
EXTT11=
EXTT12=
EXTT13=
EXTT14=
EXTT15=
EXTT16=
EXTT17=
EXTT18=
EXTT19=
PLAYORDER=
